<svg width="63" height="62" viewBox="0 0 63 62" fill="none" xmlns="http://www.w3.org/2000/svg">
<path d="M39.6283 38.1885C39.6492 38.178 39.6701 38.1688 39.6922 38.1595C39.7142 38.1746 39.7351 38.1908 39.7572 38.2082C39.7444 38.2047 39.6957 38.1943 39.6295 38.1885H39.6283Z" fill="white"/>
<path d="M43.1604 36.2404C43.1604 36.2404 42.6064 37.2968 42.9618 39.2612C42.992 39.4316 43.0315 39.6079 43.0756 39.7923C43.0814 39.8131 43.0861 39.8352 43.0919 39.8549C43.6831 42.1092 45.6018 43.0624 44.1929 46.5853C43.6494 48.1427 44.1093 48.5601 44.1093 48.5601C44.1093 48.5601 46.1152 49.4866 45.1059 51.9068C44.0942 54.3257 43.4728 53.7332 42.5936 53.4757C41.7144 53.2183 41.0744 56.3945 37.7758 54.5971C35.5667 53.3934 34.3239 53.2797 33.6189 53.9975C33.6189 53.9975 33.2275 52.7753 35.54 52.9794C37.4634 53.1499 38.4971 54.2156 39.3473 53.5325C39.3473 53.5325 37.1684 53.5917 36.3077 52.0401C35.4482 50.4897 35.9012 49.4982 36.4959 48.6042C37.0882 47.7124 38.8153 48.0939 37.8234 44.6453C36.8954 41.4122 38.8351 41.0748 39.0035 39.8328C39.0163 39.7517 39.0198 39.6647 39.0139 39.5731C39.0058 39.4432 39.0058 39.3261 39.0163 39.2229C39.0221 39.115 39.0383 39.0223 39.0616 38.9411C39.3937 38.7405 39.7643 38.497 39.8758 38.3474C39.8293 38.3694 39.1324 38.7243 38.5087 38.7672C38.374 38.7753 38.2451 38.7695 38.1266 38.7428C38.0337 38.708 37.9826 38.6744 37.9419 38.6837L37.9524 38.6953C37.7874 38.6361 37.6841 38.5816 37.6841 38.5816C37.8095 38.5944 37.9802 38.3625 37.9802 38.3625C38.1208 38.141 38.6376 37.7641 38.7015 37.4985C38.7015 37.4985 38.5772 37.4522 38.3914 37.3571C38.022 37.1704 37.4041 36.7912 37.0267 36.2102C37.1138 36.0455 37.9222 36.078 37.6806 35.9342C37.4471 35.7927 36.9128 35.9122 36.7386 35.5307C36.6736 35.2222 36.684 34.8743 36.8037 34.4882C37.1916 33.5802 38.1312 34.6343 38.7062 34.7642C39.2822 34.894 39.5575 34.0812 39.892 34.0649C40.2288 34.051 41.2045 34.6969 41.9467 34.6795C42.69 34.6633 43.0919 33.8179 44.0164 35.0831C44.9421 36.3459 45.6146 36.3157 45.6146 36.3157C45.6146 36.3157 44.5158 37.8731 43.1616 36.2404H43.1604Z" fill="white"/>
<path d="M39.7189 31.8639C39.1788 30.8168 37.1544 30.7194 37.1544 31.4697C37.1544 32.2199 38.1091 32.6594 37.5156 32.9354C36.9221 33.2114 36.9093 32.4936 35.4888 30.4434C34.6653 29.256 33.9603 29.2409 32.7756 27.8923C32.44 27.5107 31.8627 26.8683 31.4957 26.1007C31.4957 26.1007 31.3377 26.2584 31.1008 26.1401C30.8638 26.0218 30.0334 24.1664 29.8754 23.8904C29.8057 23.7698 29.7604 23.8823 29.7175 24.1015C29.6606 24.3856 29.6095 24.8529 29.52 25.2321C29.4062 25.7157 29.6397 26.4022 29.6176 27.2626L29.7895 28.9092C29.6489 29.4102 29.5874 31.3317 29.6106 30.6034C29.6489 29.409 29.6013 29.2954 29.6489 29.409C29.7419 29.6363 29.9382 31.3862 30.0392 31.53C30.074 31.5775 30.1054 31.6239 30.1368 31.6703C30.3261 31.9521 30.4562 32.2582 30.347 33.0468C30.1402 34.5577 29.9718 36.514 30.0799 38.6558C30.189 40.7988 30.3516 40.8417 30.3249 42.6855C30.2982 44.5281 29.9486 44.4203 30.2192 46.06C30.4899 47.6962 29.9974 49.7313 29.9974 49.7313C29.9974 49.7313 29.6652 52.4993 29.5154 52.8414C29.3655 53.1858 28.7871 53.4734 28.7871 53.4734C28.7871 53.4734 27.3876 53.049 27.1471 52.606C27.1204 52.5596 27.0856 52.4819 27.0403 52.3799C27.0147 52.3196 27.1797 52.6802 27.1471 52.606C27.1204 52.5434 26.7778 53.0188 26.7488 52.9458C26.5745 52.5051 26.4816 50.928 26.3016 50.2844C26.4189 49.3301 26.4549 48.2899 26.24 47.6115C26.182 47.4295 26.1181 47.1697 26.0507 46.8508C26.1355 44.5548 25.391 39.9882 25.5699 39.166C25.5954 39.0478 25.7429 38.9098 25.722 38.7637C25.6918 38.5549 25.772 38.3265 25.679 38.1004C25.5466 37.7675 25.6674 37.4359 25.5095 37.1669C25.4142 37.0045 25.3259 36.8654 25.2574 36.761C25.2574 36.7598 25.2563 36.7598 25.2563 36.7575C25.1773 36.6381 25.125 36.565 25.125 36.565L24.6953 34.3096L24.5814 36.1835L24.5454 36.3134L24.5756 36.4259C24.5756 36.4259 24.154 38.454 24.3422 39.3226C24.5013 40.0601 24.226 41.6627 24.1598 47.0074C24.0913 47.3274 24.0286 47.5872 23.9693 47.7692C23.7545 48.4464 23.7905 49.4878 23.9078 50.441C23.6058 51.5264 23.9879 51.3513 23.8544 51.596C23.8369 51.6273 23.0216 52.8263 22.9937 52.8565C22.9252 52.9342 22.8265 53.0095 22.7103 53.0803C22.2155 53.3887 21.4199 53.6299 21.4199 53.6299C21.4199 53.6299 20.8438 53.3412 20.694 52.9991C20.5442 52.6558 20.212 49.8878 20.212 49.8878C20.212 49.8878 19.7184 47.8527 19.9901 46.2153C20.2608 44.578 19.9112 44.6835 19.8844 42.8409C19.8577 40.9982 19.5732 40.9542 19.6824 38.8124C19.7695 37.1112 19.9623 35.5283 19.9321 34.1901V34.1867C19.9251 33.8411 19.9054 33.5129 19.8624 33.201C19.6556 31.6912 20.5871 30.07 20.8682 28.8733C21.0657 28.0384 20.5953 30.0074 20.4745 29.3963C20.5744 29.0438 20.4478 28.123 20.3827 27.8412C20.5546 27.1339 20.4605 27.5084 20.4501 27.0423C20.4501 27.0237 20.4501 27.0017 20.4489 26.9796H20.5244C20.5198 26.9576 20.5163 26.9321 20.514 26.9089C20.5105 26.8904 20.5093 26.8695 20.507 26.8509C20.5848 26.6689 20.6533 26.4833 20.7021 26.2931C20.9786 25.2275 20.8206 23.1483 20.8206 23.1483C20.8206 23.1483 20.5012 23.0427 20.2794 23.546C20.2794 23.546 20.2782 23.546 20.2782 23.5472C20.1876 23.7524 20.1121 24.0609 20.0819 24.5166C19.9774 26.096 19.2387 27.4644 18.7125 28.7283C18.342 29.6108 19.1748 30.2474 19.3827 31.1995C19.4443 31.4824 19.4501 31.792 19.356 32.1434C19.313 32.3034 19.248 32.4704 19.1597 32.649C18.8438 33.281 18.3943 31.4013 18.1318 31.7804C17.7764 32.2942 17.9343 32.6884 18.8438 33.281C19.7532 33.8724 19.0807 34.7409 18.1318 33.9918C17.1829 33.2416 16.155 32.6896 16.5894 30.8342C17.0237 28.9788 16.9448 28.5045 17.1434 27.5571C17.1956 27.3125 17.2084 27.0318 17.2084 26.728C17.2154 25.8618 17.1178 24.8239 17.4999 24.0041C18.0145 22.899 18.2514 22.3458 18.2119 22.1487C18.1852 22.0176 17.7276 21.8356 17.3861 21.5897C17.2107 21.4645 17.0667 21.323 17.0261 21.1619C16.9076 20.6887 17.3815 20.7282 17.5394 19.7807C17.6974 18.8333 18.133 15.5563 20.3072 14.9254C22.4815 14.2934 23.9844 14.254 23.9055 12.7152C23.8265 11.1752 22.8381 10.5444 23.233 9.04387C23.6279 7.54333 24.4583 5.80622 26.1982 6.04394C26.5664 6.09497 26.9102 6.19237 27.2203 6.32805C28.3713 6.83596 29.0485 7.87614 28.7685 8.96501C28.4131 10.3461 28.9265 10.505 28.175 11.8861C27.5537 13.0295 27.0391 13.5246 28.2494 14.312C28.5014 14.4743 28.8266 14.6494 29.2424 14.8477C30.1437 15.2756 30.6908 15.6038 31.0311 15.8705C31.6037 16.3158 31.5944 16.5895 31.6931 16.8608C31.8511 17.2945 31.8116 18.9922 32.2867 19.7819C32.7094 20.4846 33.0381 21.8147 33.217 22.9894C33.2391 23.1344 33.2576 23.2758 33.2751 23.4138C33.433 24.6766 34.303 24.9932 35.1729 27.0457C36.0428 29.0983 36.5562 29.0588 37.5063 29.4148C38.4552 29.7697 39.4831 30.1651 40.3531 31.3096C41.223 32.4542 40.1312 32.6583 39.7212 31.8628L39.7189 31.8639Z" fill="white"/>
<path d="M42.9071 39.6704C42.3717 39.7679 41.7677 39.8003 41.187 39.8003C40.1428 39.8003 39.173 39.6925 38.8187 39.6484C38.8315 39.5672 38.835 39.4803 38.8292 39.3887C38.821 39.2588 38.821 39.1417 38.8315 39.0385C39.2299 39.0895 41.3147 39.333 42.777 39.0767C42.8072 39.2472 42.8455 39.4234 42.8908 39.6078C42.8967 39.6275 42.9013 39.6507 42.9071 39.6704Z" fill="#975BE5"/>
<path d="M20.5627 51.3977C21.6569 50.5801 22.8299 49.7313 24.1923 49.6165C24.3793 49.6003 24.5872 49.6061 24.7243 49.7336C24.8555 49.8554 24.8811 50.049 24.8869 50.2276C24.9008 50.6416 24.8439 51.0718 24.6291 51.4267C24.5187 51.6099 24.3701 51.7676 24.2202 51.9206C23.7672 52.3833 23.2922 52.8251 22.7974 53.2438C22.5152 53.4815 22.2097 53.7204 21.8462 53.783C21.4826 53.8468 21.0506 53.6693 20.953 53.3133" fill="white"/>
<path d="M26.5582 50.1441C27.6268 49.991 28.7139 49.8322 29.6884 49.3706C30.1054 49.1735 30.5758 48.9172 30.9974 49.1016C31.3725 49.2651 31.534 49.7336 31.4736 50.1371C31.4132 50.5407 31.182 50.8967 30.9556 51.2376C30.829 51.429 30.7024 51.6203 30.5758 51.8116C30.3562 52.1433 30.1309 52.4819 29.8196 52.7312C29.1924 53.2356 28.3167 53.3029 27.5164 53.2171C27.3318 53.1974 27.1378 53.1661 26.9915 53.0524C26.8451 52.9376 26.7685 52.7138 26.8753 52.5619" fill="white"/>
<path d="M31.0496 62C13.9284 62 0 48.0939 0 31C0 13.9061 13.9284 0 31.0496 0C48.1709 0 62.0993 13.9061 62.0993 31C62.0993 48.0939 48.1709 62 31.0496 62ZM31.0496 0.797816C14.3697 0.797816 0.799093 14.3468 0.799093 31C0.799093 47.6532 14.3697 61.2022 31.0496 61.2022C47.7295 61.2022 61.3002 47.6532 61.3002 31C61.3002 14.3468 47.7295 0.797816 31.0496 0.797816Z" fill="white"/>
</svg>
