<svg width="176" height="86" viewBox="0 0 176 86" fill="none" xmlns="http://www.w3.org/2000/svg">
<g clip-path="url(#clip0_2772_12496)">
<path d="M54.918 52.9711C54.9469 52.9566 54.9759 52.9438 55.0065 52.9309C55.0371 52.9518 55.066 52.9743 55.0966 52.9985C55.0789 52.9936 55.0113 52.9792 54.9196 52.9711H54.918Z" fill="white"/>
<path d="M59.8127 50.2688C59.8127 50.2688 59.0449 51.7342 59.5375 54.459C59.5793 54.6954 59.6341 54.9399 59.6952 55.1957C59.7033 55.2246 59.7097 55.2552 59.7178 55.2825C60.537 58.4094 63.1961 59.7316 61.2437 64.6182C60.4904 66.7785 61.1278 67.3575 61.1278 67.3575C61.1278 67.3575 63.9075 68.6427 62.5088 71.9996C61.1068 75.355 60.2457 74.533 59.0272 74.1759C57.8088 73.8189 56.9219 78.2245 52.3506 75.7314C49.2892 74.0617 47.5669 73.9041 46.5899 74.8998C46.5899 74.8998 46.0474 73.2044 49.2521 73.4875C51.9176 73.724 53.3502 75.2022 54.5284 74.2548C54.5284 74.2548 51.5088 74.3368 50.3161 72.1846C49.125 70.0341 49.7527 68.6588 50.5768 67.4186C51.3977 66.1817 53.7912 66.7109 52.4166 61.9272C51.1305 57.4427 53.8186 56.9747 54.052 55.252C54.0697 55.1394 54.0745 55.0187 54.0665 54.8917C54.0552 54.7115 54.0552 54.549 54.0697 54.4059C54.0777 54.2563 54.1003 54.1276 54.1325 54.015C54.5928 53.7368 55.1063 53.399 55.2608 53.1915C55.1964 53.222 54.2306 53.7142 53.3663 53.7737C53.1796 53.785 53.0009 53.777 52.8367 53.74C52.708 53.6917 52.6371 53.6451 52.5808 53.6579L52.5953 53.674C52.3667 53.592 52.2235 53.5164 52.2235 53.5164C52.3973 53.5341 52.6339 53.2124 52.6339 53.2124C52.8287 52.9052 53.5449 52.3824 53.6335 52.014C53.6335 52.014 53.4612 51.9497 53.2037 51.8178C52.6919 51.5588 51.8356 51.0329 51.3124 50.227C51.4332 49.9986 52.5534 50.0436 52.2186 49.8442C51.8951 49.6479 51.1547 49.8136 50.9133 49.2844C50.8231 48.8566 50.8376 48.374 51.0034 47.8384C51.541 46.5789 52.8432 48.0411 53.6399 48.2212C54.4383 48.4014 54.8197 47.2738 55.2833 47.2513C55.7501 47.232 57.1022 48.1279 58.1307 48.1038C59.1608 48.0813 59.7178 46.9087 60.999 48.6635C62.2818 50.4152 63.2138 50.3734 63.2138 50.3734C63.2138 50.3734 61.6911 52.5336 59.8143 50.2688H59.8127Z" fill="white"/>
<path d="M55.0436 44.1983C54.2951 42.7459 51.4896 42.6107 51.4896 43.6514C51.4896 44.6921 52.8127 45.3018 51.9901 45.6846C51.1676 46.0674 51.1499 45.0718 49.1814 42.2279C48.0402 40.5808 47.0632 40.5599 45.4214 38.6892C44.9562 38.16 44.1562 37.2689 43.6476 36.2041C43.6476 36.2041 43.4287 36.4229 43.1003 36.2588C42.772 36.0947 41.6211 33.5211 41.4022 33.1383C41.3056 32.971 41.2429 33.127 41.1833 33.431C41.1044 33.8251 41.0336 34.4734 40.9097 34.9993C40.7519 35.6701 41.0755 36.6223 41.0449 37.8158L41.2831 40.0999C41.0883 40.7948 41.003 43.46 41.0352 42.4499C41.0883 40.7931 41.0223 40.6355 41.0883 40.7931C41.2171 41.1084 41.4891 43.5356 41.6292 43.7351C41.6774 43.801 41.7209 43.8654 41.7644 43.9297C42.0267 44.3206 42.207 44.7452 42.0557 45.839C41.7692 47.9349 41.5358 50.6484 41.6855 53.6193C41.8368 56.5918 42.0621 56.6513 42.0251 59.2089C41.9881 61.7648 41.5036 61.6152 41.8786 63.8896C42.2537 66.1592 41.5712 68.9821 41.5712 68.9821C41.5712 68.9821 41.1109 72.8216 40.9032 73.2961C40.6956 73.7738 39.894 74.1727 39.894 74.1727C39.894 74.1727 37.9544 73.584 37.6213 72.9696C37.5842 72.9052 37.5359 72.7974 37.4732 72.6559C37.4378 72.5723 37.6663 73.0725 37.6213 72.9696C37.5842 72.8827 37.1094 73.5422 37.0692 73.4408C36.8277 72.8296 36.699 70.6421 36.4495 69.7493C36.612 68.4255 36.6619 66.9827 36.3642 66.0417C36.2837 65.7892 36.1951 65.4289 36.1018 64.9866C36.2193 61.8017 35.1875 55.4675 35.4354 54.3271C35.4708 54.163 35.6753 53.9716 35.6463 53.7689C35.6044 53.4794 35.7155 53.1625 35.5867 52.8488C35.4032 52.3872 35.5706 51.9272 35.3517 51.554C35.2197 51.3288 35.0974 51.1358 35.0024 50.991C35.0024 50.9894 35.0008 50.9894 35.0008 50.9862C34.8914 50.8205 34.8189 50.7192 34.8189 50.7192L34.2234 47.5907L34.0657 50.19L34.0158 50.3701L34.0576 50.5262C34.0576 50.5262 33.4733 53.3394 33.7341 54.5442C33.9546 55.5672 33.5731 57.7901 33.4814 65.2037C33.3864 65.6477 33.2995 66.008 33.2174 66.2605C32.9196 67.1999 32.9695 68.6443 33.1321 69.9665C32.7136 71.472 33.2431 71.2292 33.058 71.5686C33.0339 71.612 31.904 73.2752 31.8653 73.317C31.7704 73.4248 31.6335 73.5293 31.4726 73.6274C30.7869 74.0553 29.6843 74.3899 29.6843 74.3899C29.6843 74.3899 28.886 73.9893 28.6783 73.5148C28.4707 73.0387 28.0103 69.1992 28.0103 69.1992C28.0103 69.1992 27.3263 66.3763 27.7029 64.1051C28.0779 61.8339 27.5935 61.9803 27.5564 59.4244C27.5194 56.8685 27.1251 56.8074 27.2764 53.8365C27.3971 51.4768 27.6643 49.2812 27.6224 47.425V47.4202C27.6128 46.9408 27.5854 46.4856 27.5258 46.0529C27.2393 43.9587 28.5302 41.71 28.9198 40.05C29.1934 38.8919 28.5415 41.6231 28.3741 40.7755C28.5125 40.2865 28.3371 39.0093 28.247 38.6185C28.4852 37.6373 28.3548 38.1568 28.3403 37.5102C28.3403 37.4845 28.3403 37.4539 28.3387 37.4233H28.4433C28.4369 37.3928 28.4321 37.3574 28.4288 37.3252C28.424 37.2995 28.4224 37.2705 28.4192 37.2448C28.527 36.9923 28.622 36.7349 28.6896 36.4711C29.0727 34.9929 28.8538 32.1089 28.8538 32.1089C28.8538 32.1089 28.4111 31.9625 28.1037 32.6606C28.1037 32.6606 28.1021 32.6606 28.1021 32.6622C27.9765 32.9469 27.8719 33.3747 27.8301 34.0069C27.6852 36.1977 26.6615 38.0957 25.9323 39.849C25.4189 41.073 26.573 41.9561 26.8611 43.2767C26.9464 43.6691 26.9544 44.0986 26.8241 44.586C26.7645 44.808 26.6744 45.0396 26.552 45.2873C26.1142 46.1639 25.4913 43.5565 25.1275 44.0825C24.635 44.7951 24.8539 45.342 26.1142 46.1639C27.3745 46.9843 26.4426 48.189 25.1275 47.1499C23.8125 46.1092 22.388 45.3436 22.99 42.77C23.592 40.1964 23.4825 39.5385 23.7578 38.2244C23.8302 37.885 23.8479 37.4957 23.8479 37.0743C23.8576 35.8727 23.7224 34.4331 24.2519 33.2959C24.965 31.763 25.2933 30.9958 25.2386 30.7223C25.2016 30.5406 24.5674 30.288 24.0942 29.947C23.8511 29.7733 23.6515 29.5771 23.5952 29.3535C23.431 28.6972 24.0877 28.7519 24.3067 27.4378C24.5256 26.1236 25.1292 21.578 28.1423 20.703C31.1555 19.8264 33.2383 19.7717 33.1289 17.6372C33.0194 15.5011 31.6496 14.6261 32.1969 12.5447C32.7442 10.4633 33.895 8.05376 36.3062 8.3835C36.8165 8.45428 37.2929 8.58939 37.7227 8.77758C39.3178 9.48211 40.2562 10.9249 39.8683 12.4353C39.3757 14.351 40.0872 14.5714 39.0457 16.4871C38.1846 18.0731 37.4716 18.7599 39.1488 19.8521C39.498 20.0773 39.9487 20.3202 40.525 20.5952C41.774 21.1888 42.5321 21.644 43.0038 22.0139C43.7973 22.6316 43.7844 23.0112 43.9212 23.3876C44.1401 23.9892 44.0854 26.344 44.7437 27.4394C45.3296 28.4141 45.7851 30.2591 46.033 31.8885C46.0636 32.0896 46.0894 32.2858 46.1135 32.4772C46.3324 34.2289 47.538 34.668 48.7436 37.515C49.9492 40.3621 50.6606 40.3074 51.9773 40.8012C53.2923 41.2934 54.7168 41.8419 55.9224 43.4295C57.128 45.0171 55.615 45.3002 55.0468 44.1967L55.0436 44.1983Z" fill="white"/>
<path d="M59.4619 55.0268C58.7199 55.1619 57.8829 55.2069 57.0781 55.2069C55.6311 55.2069 54.2871 55.0573 53.7961 54.9962C53.8138 54.8836 53.8187 54.763 53.8106 54.6359C53.7994 54.4558 53.7994 54.2933 53.8138 54.1501C54.3659 54.2209 57.2552 54.5587 59.2817 54.2032C59.3235 54.4397 59.3766 54.6842 59.4394 54.9399C59.4474 54.9673 59.4539 54.9994 59.4619 55.0268Z" fill="#975BE5"/>
<path d="M28.4963 71.2935C30.0126 70.1595 31.6383 68.9821 33.5263 68.8229C33.7855 68.8003 34.0736 68.8084 34.2635 68.9853C34.4454 69.1542 34.4808 69.4228 34.4889 69.6705C34.5082 70.2448 34.4293 70.8415 34.1315 71.3337C33.9786 71.5879 33.7726 71.8066 33.565 72.0189C32.9372 72.6607 32.2789 73.2736 31.5932 73.8542C31.2021 74.184 30.7787 74.5153 30.2749 74.6022C29.7711 74.6907 29.1724 74.4446 29.0372 73.9508" fill="white"/>
<path d="M36.8052 69.5547C38.286 69.3423 39.7926 69.122 41.143 68.4818C41.7209 68.2083 42.3728 67.8529 42.9571 68.1086C43.477 68.3354 43.7007 68.9853 43.617 69.545C43.5333 70.1048 43.213 70.5986 42.8991 71.0715C42.7237 71.3369 42.5482 71.6023 42.3728 71.8677C42.0686 72.3277 41.7563 72.7974 41.3249 73.1432C40.4557 73.8429 39.2421 73.9362 38.1331 73.8172C37.8772 73.7898 37.6084 73.7464 37.4056 73.5888C37.2027 73.4295 37.0965 73.1191 37.2446 72.9084" fill="white"/>
<path d="M43.0294 86C19.3023 86 0 66.7109 0 43C0 19.2891 19.3023 0 43.0294 0C66.7565 0 86.0588 19.2891 86.0588 43C86.0588 66.7109 66.7565 86 43.0294 86ZM43.0294 1.10665C19.914 1.10665 1.1074 19.9003 1.1074 43C1.1074 66.0997 19.914 84.8934 43.0294 84.8934C66.1449 84.8934 84.9514 66.0997 84.9514 43C84.9514 19.9003 66.1449 1.10665 43.0294 1.10665Z" fill="white"/>
<path d="M112.311 22.2022C112.311 22.3421 112.289 22.4804 112.242 22.6139C112.196 22.7474 112.134 22.8745 112.057 22.9935L103.893 34.4879H112.152V36.4824H100.661V35.5109C100.661 35.3774 100.682 35.2519 100.724 35.1361C100.766 35.0203 100.822 34.9093 100.893 34.8031L109.089 23.2766H101.115V21.2821H112.311V22.2006V22.2022Z" fill="white"/>
<path d="M118.5 25.5479C119.295 25.5479 120.017 25.6781 120.66 25.9387C121.304 26.1993 121.853 26.5692 122.309 27.047C122.762 27.5263 123.113 28.107 123.36 28.789C123.606 29.471 123.73 30.2382 123.73 31.0891C123.73 31.94 123.606 32.7073 123.36 33.3909C123.113 34.0729 122.762 34.6552 122.309 35.1377C121.855 35.6203 121.306 35.9918 120.66 36.2508C120.017 36.5114 119.295 36.6417 118.5 36.6417C117.705 36.6417 116.974 36.5114 116.329 36.2508C115.685 35.9902 115.133 35.6187 114.676 35.1377C114.219 34.6552 113.866 34.0729 113.62 33.3909C113.374 32.7089 113.25 31.9416 113.25 31.0891C113.25 30.2366 113.374 29.471 113.62 28.789C113.866 28.107 114.219 27.5263 114.676 27.047C115.133 26.5692 115.685 26.1993 116.329 25.9387C116.973 25.6781 117.697 25.5479 118.5 25.5479ZM118.5 34.8675C119.472 34.8675 120.195 34.5426 120.67 33.8911C121.145 33.2397 121.383 32.31 121.383 31.0988C121.383 29.8876 121.145 28.9547 120.67 28.2968C120.195 27.6389 119.471 27.3092 118.5 27.3092C117.53 27.3092 116.781 27.6389 116.303 28.2968C115.824 28.9547 115.585 29.8892 115.585 31.0988C115.585 32.3084 115.825 33.2397 116.303 33.8911C116.781 34.5426 117.514 34.8675 118.5 34.8675Z" fill="white"/>
<path d="M127.551 31.279C127.578 31.8918 127.675 32.421 127.836 32.8681C127.999 33.3153 128.214 33.6853 128.485 33.9812C128.755 34.2772 129.08 34.4976 129.457 34.6407C129.833 34.7855 130.254 34.8563 130.719 34.8563C131.184 34.8563 131.546 34.8048 131.87 34.7034C132.193 34.6021 132.475 34.4895 132.715 34.3657C132.954 34.2434 133.159 34.1308 133.328 34.0279C133.497 33.9265 133.651 33.8751 133.793 33.8751C133.977 33.8751 134.117 33.9458 134.216 34.0858L134.86 34.919C134.593 35.2359 134.29 35.5029 133.952 35.7216C133.614 35.9404 133.255 36.1173 132.876 36.254C132.496 36.3908 132.105 36.4889 131.704 36.55C131.303 36.6095 130.912 36.6401 130.532 36.6401C129.785 36.6401 129.095 36.5146 128.457 36.2653C127.82 36.016 127.268 35.6476 126.799 35.1619C126.331 34.6761 125.966 34.0745 125.702 33.3571C125.438 32.6397 125.306 31.813 125.306 30.8768C125.306 30.1305 125.423 29.434 125.66 28.7874C125.896 28.1408 126.233 27.5778 126.674 27.0985C127.113 26.6191 127.649 26.2411 128.279 25.9629C128.91 25.6846 129.621 25.5463 130.418 25.5463C131.079 25.5463 131.693 25.654 132.256 25.868C132.819 26.0819 133.305 26.3972 133.714 26.8122C134.123 27.2271 134.442 27.7354 134.67 28.337C134.899 28.9386 135.013 29.6238 135.013 30.3895C135.013 30.7417 134.975 30.9766 134.897 31.0972C134.82 31.2178 134.678 31.2773 134.476 31.2773H127.557L127.551 31.279ZM132.969 29.886C132.969 29.5064 132.914 29.1525 132.805 28.8244C132.695 28.4979 132.536 28.2132 132.324 27.9703C132.113 27.7274 131.85 27.5376 131.536 27.4009C131.223 27.2641 130.862 27.195 130.453 27.195C129.629 27.195 128.982 27.4314 128.51 27.9027C128.039 28.374 127.739 29.0351 127.612 29.8876H132.967L132.969 29.886Z" fill="white"/>
<path d="M140.479 36.6513C139.584 36.6513 138.897 36.4004 138.414 35.8969C137.931 35.3934 137.692 34.6841 137.692 33.7705V27.5005H136.508C136.381 27.5005 136.272 27.4603 136.182 27.3783C136.09 27.2979 136.045 27.1756 136.045 27.0148V26.0963L137.788 25.8438L138.284 22.7297C138.319 22.6107 138.379 22.5142 138.464 22.4402C138.548 22.3662 138.661 22.3292 138.802 22.3292H139.964V25.8647H142.953V27.5005H139.964V33.6112C139.964 33.9989 140.059 34.2932 140.249 34.4975C140.439 34.7018 140.693 34.8031 141.009 34.8031C141.184 34.8031 141.336 34.7806 141.463 34.734C141.59 34.6889 141.698 34.6391 141.79 34.586C141.881 34.5329 141.96 34.4846 142.028 34.438C142.094 34.393 142.16 34.3688 142.223 34.3688C142.35 34.3688 142.451 34.4396 142.528 34.5795L143.204 35.6878C142.852 35.9982 142.437 36.2347 141.959 36.4004C141.479 36.566 140.986 36.6481 140.479 36.6481V36.6513Z" fill="white"/>
<path d="M144.483 27.2158C145.701 26.0834 147.151 25.5156 148.833 25.5156C149.453 25.5156 150.003 25.6154 150.486 25.8164C150.969 26.0175 151.373 26.3006 151.702 26.6657C152.028 27.0324 152.279 27.4667 152.452 27.9686C152.624 28.472 152.711 29.0302 152.711 29.6414V36.4808H151.697C151.478 36.4808 151.314 36.447 151.201 36.381C151.088 36.3151 150.993 36.1784 150.916 35.9741L150.694 35.0975C150.419 35.3436 150.148 35.5639 149.881 35.7569C149.614 35.95 149.337 36.114 149.052 36.2475C148.767 36.381 148.461 36.4808 148.133 36.5483C147.806 36.6143 147.444 36.648 147.05 36.648C146.614 36.648 146.206 36.5885 145.83 36.4695C145.453 36.3505 145.128 36.1687 144.853 35.9258C144.577 35.6829 144.362 35.3822 144.204 35.0235C144.046 34.6648 143.966 34.2417 143.966 33.7576C143.966 33.3426 144.077 32.9372 144.299 32.5432C144.521 32.1491 144.887 31.7952 145.397 31.4815C145.907 31.1679 146.58 30.9105 147.414 30.7062C148.247 30.502 149.278 30.3862 150.502 30.3588V29.6414C150.502 28.8677 150.337 28.2903 150.007 27.9107C149.675 27.5311 149.191 27.3413 148.548 27.3413C148.112 27.3413 147.745 27.396 147.451 27.5053C147.154 27.6147 146.897 27.7321 146.68 27.8592C146.461 27.9863 146.268 28.1037 146.099 28.2131C145.93 28.3225 145.749 28.3771 145.559 28.3771C145.405 28.3771 145.273 28.3369 145.163 28.2565C145.054 28.1761 144.964 28.0764 144.895 27.9557L144.483 27.2174V27.2158ZM150.502 31.7759C149.693 31.8032 149.01 31.8692 148.453 31.9705C147.896 32.0719 147.446 32.2022 147.101 32.3614C146.757 32.519 146.507 32.7072 146.356 32.926C146.205 33.1431 146.129 33.3828 146.129 33.6434C146.129 33.9039 146.169 34.1131 146.251 34.2932C146.332 34.4717 146.445 34.6197 146.589 34.7371C146.734 34.853 146.903 34.9382 147.096 34.9897C147.29 35.0412 147.504 35.0685 147.736 35.0685C148.326 35.0685 148.835 34.9575 149.261 34.7355C149.688 34.5136 150.102 34.1919 150.502 33.7704V31.7759Z" fill="white"/>
<path d="M115.331 54.2145C115.331 55.3405 115.147 56.3699 114.782 57.3012C114.415 58.2342 113.9 59.0336 113.235 59.7027C112.571 60.3719 111.771 60.8898 110.839 61.2597C109.905 61.6297 108.868 61.8147 107.727 61.8147H101.981V46.616H107.727C108.868 46.616 109.905 46.8009 110.839 47.1709C111.772 47.5409 112.571 48.0588 113.235 48.7279C113.9 49.3971 114.417 50.1965 114.782 51.1294C115.147 52.0623 115.331 53.0902 115.331 54.2161V54.2145ZM112.807 54.2145C112.807 53.3427 112.69 52.5578 112.453 51.8613C112.216 51.1648 111.878 50.5777 111.439 50.0984C111 49.619 110.465 49.2523 109.839 48.9949C109.213 48.7376 108.508 48.6089 107.727 48.6089H104.463V59.8185H107.727C108.509 59.8185 109.213 59.6915 109.839 59.4389C110.465 59.1864 111 58.818 111.439 58.3355C111.878 57.8529 112.216 57.2658 112.453 56.5726C112.69 55.8793 112.807 55.0928 112.807 54.2129V54.2145Z" fill="white"/>
<path d="M122.145 50.8785C122.94 50.8785 123.661 51.0088 124.305 51.2694C124.948 51.53 125.497 51.8999 125.953 52.3777C126.407 52.857 126.758 53.4377 127.004 54.1197C127.25 54.8017 127.374 55.5689 127.374 56.4198C127.374 57.2707 127.25 58.038 127.004 58.7216C126.758 59.4036 126.407 59.9859 125.953 60.4684C125.499 60.951 124.95 61.3225 124.305 61.5815C123.661 61.8421 122.94 61.9724 122.145 61.9724C121.349 61.9724 120.619 61.8421 119.973 61.5815C119.329 61.3209 118.777 60.9494 118.32 60.4684C117.863 59.9859 117.511 59.4036 117.264 58.7216C117.018 58.0396 116.894 57.2723 116.894 56.4198C116.894 55.5673 117.018 54.8017 117.264 54.1197C117.511 53.4377 117.863 52.857 118.32 52.3777C118.777 51.8999 119.329 51.53 119.973 51.2694C120.617 51.0088 121.341 50.8785 122.145 50.8785ZM122.145 60.1982C123.117 60.1982 123.839 59.8733 124.314 59.2218C124.789 58.5704 125.027 57.6407 125.027 56.4295C125.027 55.2183 124.789 54.2853 124.314 53.6275C123.839 52.9696 123.115 52.6398 122.145 52.6398C121.174 52.6398 120.426 52.9696 119.947 53.6275C119.468 54.2853 119.23 55.2199 119.23 56.4295C119.23 57.6391 119.469 58.5704 119.947 59.2218C120.426 59.8733 121.158 60.1982 122.145 60.1982Z" fill="white"/>
<path d="M138.759 51.4382V52.2827C138.759 52.5641 138.59 52.7363 138.252 52.8006L137.175 52.9807C137.358 53.3893 137.45 53.8429 137.45 54.3415C137.45 54.8691 137.346 55.3485 137.138 55.7763C136.93 56.2058 136.644 56.5709 136.277 56.8749C135.91 57.1789 135.474 57.4089 134.967 57.5714C134.46 57.7339 133.911 57.8143 133.318 57.8143C133.093 57.8143 132.872 57.8014 132.658 57.7773C132.444 57.7532 132.233 57.7194 132.029 57.6776C131.825 57.7966 131.673 57.9237 131.575 58.0572C131.477 58.1907 131.427 58.3274 131.427 58.4689C131.427 58.7006 131.528 58.8743 131.733 58.9869C131.937 59.0995 132.206 59.1799 132.541 59.2298C132.876 59.2796 133.257 59.3102 133.687 59.3247C134.117 59.3391 134.553 59.3633 134.997 59.3987C135.441 59.434 135.878 59.4919 136.307 59.5724C136.737 59.6528 137.119 59.7863 137.453 59.9729C137.788 60.1595 138.057 60.4104 138.261 60.7273C138.466 61.0441 138.567 61.4559 138.567 61.9626C138.567 62.4275 138.451 62.8811 138.218 63.325C137.986 63.7689 137.65 64.163 137.209 64.5072C136.768 64.8515 136.232 65.1281 135.597 65.3356C134.963 65.5431 134.242 65.6477 133.433 65.6477C132.623 65.6477 131.931 65.5705 131.337 65.416C130.741 65.2616 130.246 65.0509 129.848 64.7871C129.45 64.5233 129.154 64.2193 128.961 63.8735C128.768 63.5293 128.671 63.169 128.671 62.7974C128.671 62.2907 128.832 61.858 129.153 61.4994C129.473 61.1407 129.908 60.8592 130.456 60.6549C130.16 60.5149 129.924 60.3203 129.743 60.0742C129.565 59.8281 129.475 59.5048 129.475 59.1027C129.475 58.7858 129.59 58.4561 129.822 58.1102C130.054 57.766 130.403 57.4733 130.868 57.2336C130.334 56.9376 129.911 56.5452 129.602 56.0562C129.291 55.5672 129.137 54.9946 129.137 54.3415C129.137 53.8075 129.24 53.325 129.449 52.8955C129.656 52.466 129.946 52.1009 130.32 51.7985C130.693 51.4961 131.134 51.2645 131.646 51.102C132.156 50.9396 132.715 50.8591 133.32 50.8591C134.249 50.8591 135.058 51.0521 135.749 51.4398H138.759V51.4382ZM136.478 62.3406C136.478 62.1009 136.409 61.9095 136.272 61.7648C136.135 61.62 135.95 61.5074 135.717 61.427C135.485 61.3465 135.213 61.287 134.904 61.2468C134.593 61.2082 134.265 61.1809 133.915 61.1616C133.568 61.1439 133.212 61.1262 132.848 61.1085C132.485 61.0908 132.135 61.057 131.797 61.0088C131.459 61.1841 131.182 61.3964 130.968 61.6425C130.754 61.8886 130.646 62.1733 130.646 62.4966C130.646 62.7073 130.701 62.9052 130.811 63.0885C130.92 63.2719 131.089 63.4296 131.318 63.5631C131.546 63.6966 131.839 63.8027 132.195 63.8799C132.551 63.9571 132.979 63.9957 133.478 63.9957C134.477 63.9957 135.227 63.8413 135.728 63.5309C136.228 63.2204 136.478 62.8231 136.478 62.339V62.3406ZM133.32 56.3345C134.023 56.3345 134.551 56.1543 134.904 55.7956C135.256 55.4369 135.432 54.9688 135.432 54.3914C135.432 53.8139 135.256 53.333 134.904 52.9872C134.551 52.643 134.023 52.4692 133.32 52.4692C132.617 52.4692 132.097 52.6413 131.741 52.9872C131.385 53.3314 131.208 53.7995 131.208 54.3914C131.208 54.6729 131.253 54.9335 131.345 55.1731C131.437 55.4128 131.57 55.6187 131.746 55.7908C131.921 55.9629 132.142 56.0964 132.406 56.1913C132.67 56.2862 132.974 56.3345 133.32 56.3345Z" fill="white"/>
<path d="M146.987 53.0001C146.931 53.0982 146.868 53.1689 146.797 53.2108C146.726 53.2526 146.639 53.2735 146.533 53.2735C146.412 53.2735 146.284 53.2365 146.142 53.1625C146 53.0885 145.836 53.0065 145.646 52.9148C145.456 52.8231 145.233 52.7411 144.975 52.6671C144.718 52.5931 144.417 52.5561 144.072 52.5561C143.79 52.5561 143.534 52.5899 143.306 52.6558C143.077 52.7234 142.884 52.8183 142.725 52.9405C142.567 53.0644 142.445 53.2075 142.361 53.3732C142.276 53.5389 142.234 53.7158 142.234 53.9056C142.234 54.1582 142.311 54.3705 142.466 54.5394C142.62 54.7083 142.825 54.8547 143.079 54.9769C143.333 55.0991 143.621 55.2101 143.945 55.3099C144.268 55.408 144.6 55.5141 144.938 55.6267C145.276 55.7393 145.608 55.8696 145.931 56.0176C146.255 56.1656 146.544 56.3473 146.797 56.5613C147.05 56.7752 147.254 57.0358 147.41 57.343C147.565 57.6486 147.642 58.0202 147.642 58.4561C147.642 58.9628 147.55 59.4308 147.367 59.8603C147.183 60.2898 146.916 60.6629 146.564 60.9798C146.211 61.2967 145.773 61.5428 145.249 61.7181C144.724 61.8934 144.124 61.9819 143.448 61.9819C143.074 61.9819 142.714 61.9481 142.364 61.8822C142.015 61.8146 141.685 61.7246 141.371 61.6071C141.057 61.4913 140.766 61.3514 140.494 61.1905C140.222 61.0281 139.982 60.8527 139.771 60.6629L140.299 59.7976C140.362 59.693 140.441 59.6094 140.537 59.5499C140.632 59.4903 140.75 59.4598 140.892 59.4598C141.04 59.4598 141.186 59.508 141.329 59.6013C141.474 59.6962 141.643 59.8008 141.836 59.9134C142.03 60.026 142.265 60.1305 142.538 60.2254C142.813 60.3203 143.155 60.3686 143.563 60.3686C143.901 60.3686 144.193 60.3284 144.441 60.2463C144.687 60.1659 144.891 60.0549 145.052 59.9134C145.215 59.7734 145.334 59.6126 145.411 59.4324C145.489 59.2539 145.527 59.0609 145.527 58.8566C145.527 58.5815 145.45 58.358 145.295 58.181C145.141 58.0057 144.935 57.8545 144.677 57.7274C144.42 57.6004 144.128 57.4878 143.8 57.3896C143.473 57.2915 143.14 57.1854 142.802 57.0728C142.464 56.9602 142.131 56.8299 141.804 56.6819C141.477 56.5339 141.184 56.3457 140.927 56.1173C140.669 55.8889 140.463 55.6106 140.309 55.2841C140.154 54.9576 140.077 54.5571 140.077 54.0858C140.077 53.6563 140.164 53.2478 140.336 52.8617C140.508 52.4741 140.763 52.1331 141.096 51.8371C141.431 51.5411 141.843 51.3079 142.332 51.1358C142.821 50.9637 143.386 50.8768 144.027 50.8768C144.753 50.8768 145.411 50.9926 146.002 51.2243C146.593 51.4559 147.09 51.7728 147.491 52.1749L146.984 52.9984L146.987 53.0001Z" fill="white"/>
<path d="M154.433 50.8785C155.228 50.8785 155.949 51.0088 156.593 51.2694C157.237 51.53 157.786 51.8999 158.241 52.3777C158.695 52.857 159.046 53.4377 159.293 54.1197C159.539 54.8017 159.663 55.5689 159.663 56.4198C159.663 57.2707 159.539 58.038 159.293 58.7216C159.046 59.4036 158.695 59.9859 158.241 60.4684C157.788 60.951 157.239 61.3225 156.593 61.5815C155.949 61.8421 155.228 61.9724 154.433 61.9724C153.638 61.9724 152.907 61.8421 152.262 61.5815C151.618 61.3209 151.066 60.9494 150.609 60.4684C150.152 59.9859 149.799 59.4036 149.553 58.7216C149.307 58.0396 149.183 57.2723 149.183 56.4198C149.183 55.5673 149.307 54.8017 149.553 54.1197C149.799 53.4377 150.152 52.857 150.609 52.3777C151.066 51.8999 151.618 51.53 152.262 51.2694C152.906 51.0088 153.63 50.8785 154.433 50.8785ZM154.433 60.1982C155.405 60.1982 156.128 59.8733 156.603 59.2218C157.078 58.5704 157.316 57.6407 157.316 56.4295C157.316 55.2183 157.078 54.2853 156.603 53.6275C156.128 52.9696 155.404 52.6398 154.433 52.6398C153.463 52.6398 152.714 52.9696 152.236 53.6275C151.756 54.2853 151.518 55.2199 151.518 56.4295C151.518 57.6391 151.758 58.5704 152.236 59.2218C152.714 59.8733 153.446 60.1982 154.433 60.1982Z" fill="white"/>
<path d="M170.92 51.0474V61.813H169.547C169.245 61.813 169.051 61.6683 168.966 61.3804L168.797 60.3783C168.572 60.6179 168.334 60.8351 168.084 61.0329C167.835 61.2308 167.567 61.3997 167.287 61.5396C167.006 61.6795 166.705 61.7889 166.384 61.8661C166.064 61.9433 165.721 61.9819 165.354 61.9819C164.762 61.9819 164.242 61.8838 163.791 61.686C163.341 61.4897 162.962 61.2115 162.655 60.8528C162.349 60.4941 162.117 60.063 161.963 59.5595C161.808 59.0561 161.731 58.5028 161.731 57.898V51.0474H164.002V57.898C164.002 58.6234 164.17 59.1864 164.504 59.5869C164.839 59.9874 165.348 60.1885 166.03 60.1885C166.531 60.1885 166.996 60.0743 167.429 59.8459C167.862 59.6174 168.269 59.3022 168.649 58.9017V51.049H170.92V51.0474Z" fill="white"/>
<path d="M176 46.1929V61.8146H173.729V46.1929H176Z" fill="white"/>
</g>
<defs>
<clipPath id="clip0_2772_12496">
<rect width="176" height="86" fill="white"/>
</clipPath>
</defs>
</svg>
