<svg width="16" height="16" viewBox="0 0 16 16" fill="none" xmlns="http://www.w3.org/2000/svg">
<path d="M5.33325 1.83334H3.33325C2.50482 1.83334 1.83325 2.50492 1.83325 3.33334V5.33334C1.83325 6.16177 2.50482 6.83334 3.33325 6.83334H5.33325C6.16168 6.83334 6.83325 6.16177 6.83325 5.33334V3.33334C6.83325 2.50492 6.16168 1.83334 5.33325 1.83334Z" stroke="white" stroke-width="1.5"/>
<path d="M12.6667 1.83334H10.6667C9.83832 1.83334 9.16675 2.50492 9.16675 3.33334V5.33334C9.16675 6.16177 9.83832 6.83334 10.6667 6.83334H12.6667C13.4952 6.83334 14.1667 6.16177 14.1667 5.33334V3.33334C14.1667 2.50492 13.4952 1.83334 12.6667 1.83334Z" stroke="white" stroke-width="1.5"/>
<path d="M12.6667 9.16666H10.6667C9.83832 9.16666 9.16675 9.83823 9.16675 10.6667V12.6667C9.16675 13.4951 9.83832 14.1667 10.6667 14.1667H12.6667C13.4952 14.1667 14.1667 13.4951 14.1667 12.6667V10.6667C14.1667 9.83823 13.4952 9.16666 12.6667 9.16666Z" stroke="white" stroke-width="1.5"/>
<path d="M5.33325 9.16666H3.33325C2.50482 9.16666 1.83325 9.83823 1.83325 10.6667V12.6667C1.83325 13.4951 2.50482 14.1667 3.33325 14.1667H5.33325C6.16168 14.1667 6.83325 13.4951 6.83325 12.6667V10.6667C6.83325 9.83823 6.16168 9.16666 5.33325 9.16666Z" stroke="white" stroke-width="1.5"/>
</svg>
