<svg width="16" height="17" viewBox="0 0 16 17" fill="none" xmlns="http://www.w3.org/2000/svg">
<path d="M14.911 8.71347L10.9083 12.4912C10.7145 12.674 10.4305 12.7239 10.186 12.6189C9.94152 12.5134 9.78299 12.2725 9.78299 12.0064L9.78044 10.0314L6.22489 10.0313C5.7335 10.0313 5.33545 9.63327 5.33545 9.14244V7.36467C5.33545 6.87383 5.73378 6.47578 6.22489 6.47578L9.78044 6.47581L9.78299 4.47581C9.78299 4.20975 9.94152 3.96887 10.186 3.86331C10.4306 3.75828 10.7147 3.8082 10.9083 3.99092L14.911 7.76869C15.1777 7.99403 15.1777 8.46069 14.911 8.71347Z" fill="#EBEFF4"/>
<path d="M3.55558 14.4495H5.33336C5.82502 14.4495 6.22225 14.0523 6.22225 13.5606C6.22225 13.069 5.82502 12.6718 5.33336 12.6718H3.55558C3.06475 12.6718 2.66669 12.2737 2.66669 11.7829V4.67176C2.66669 4.18093 3.06475 3.78287 3.55558 3.78287H5.33336C5.82502 3.78287 6.22225 3.38482 6.22225 2.89398C6.22225 2.40315 5.82502 2.0051 5.33336 2.0051H3.55558C2.0828 2.0051 0.888916 3.19898 0.888916 4.67176V11.7829C0.888916 13.2551 2.0828 14.4495 3.55558 14.4495Z" fill="#EBEFF4"/>
</svg>
