<svg width="14" height="15" viewBox="0 0 14 15" fill="none" xmlns="http://www.w3.org/2000/svg">
<path d="M8.2499 14.0295H5.7499C5.58323 14.0295 5.43879 13.9739 5.31657 13.8628C5.19434 13.7517 5.12212 13.6128 5.0999 13.4461L4.8999 11.8961C4.75546 11.8406 4.61923 11.7739 4.49123 11.6961C4.36323 11.6184 4.23834 11.535 4.11657 11.4461L2.66657 12.0461C2.51101 12.1017 2.35545 12.1072 2.1999 12.0628C2.04434 12.0184 1.92212 11.9239 1.83323 11.7795L0.599899 9.62947C0.51101 9.48502 0.483233 9.32947 0.516566 9.1628C0.549899 8.99614 0.633233 8.8628 0.766566 8.7628L2.01657 7.8128C2.00545 7.73502 1.9999 7.65991 1.9999 7.58747V7.13814C1.9999 7.06569 2.00545 6.99058 2.01657 6.9128L0.766566 5.9628C0.633233 5.8628 0.549899 5.72947 0.516566 5.5628C0.483233 5.39614 0.51101 5.24058 0.599899 5.09614L1.83323 2.94614C1.91101 2.79058 2.03034 2.69325 2.19123 2.65414C2.35212 2.61503 2.51057 2.62347 2.66657 2.67947L4.11657 3.27947C4.23879 3.19058 4.36657 3.10725 4.4999 3.02947C4.63323 2.95169 4.76657 2.88503 4.8999 2.82947L5.0999 1.27947C5.12212 1.1128 5.19434 0.973914 5.31657 0.862803C5.43879 0.751692 5.58323 0.696136 5.7499 0.696136H8.2499C8.41657 0.696136 8.56101 0.751692 8.68323 0.862803C8.80545 0.973914 8.87768 1.1128 8.8999 1.27947L9.0999 2.82947C9.24434 2.88503 9.38057 2.95169 9.50856 3.02947C9.63657 3.10725 9.76146 3.19058 9.88323 3.27947L11.3332 2.67947C11.4888 2.62391 11.6443 2.61836 11.7999 2.6628C11.9555 2.70725 12.0777 2.80169 12.1666 2.94614L13.3999 5.09614C13.4888 5.24058 13.5166 5.39614 13.4832 5.5628C13.4499 5.72947 13.3666 5.8628 13.2332 5.9628L11.9832 6.9128C11.9943 6.99058 11.9999 7.06569 11.9999 7.13814V7.58747C11.9999 7.65991 11.9888 7.73502 11.9666 7.8128L13.2166 8.7628C13.3499 8.8628 13.4332 8.99614 13.4666 9.1628C13.4999 9.32947 13.4721 9.48502 13.3832 9.62947L12.1499 11.7628C12.061 11.9072 11.9359 12.0046 11.7746 12.0548C11.6132 12.105 11.455 12.1021 11.2999 12.0461L9.88323 11.4461C9.76101 11.535 9.63323 11.6184 9.4999 11.6961C9.36657 11.7739 9.23323 11.8406 9.0999 11.8961L8.8999 13.4461C8.87768 13.6128 8.80545 13.7517 8.68323 13.8628C8.56101 13.9739 8.41657 14.0295 8.2499 14.0295ZM7.03323 9.69614C7.67768 9.69614 8.22768 9.46836 8.68323 9.0128C9.13879 8.55725 9.36657 8.00725 9.36657 7.3628C9.36657 6.71836 9.13879 6.16836 8.68323 5.7128C8.22768 5.25725 7.67768 5.02947 7.03323 5.02947C6.37768 5.02947 5.82479 5.25725 5.37457 5.7128C4.92434 6.16836 4.69945 6.71836 4.6999 7.3628C4.6999 8.00725 4.92479 8.55725 5.37457 9.0128C5.82434 9.46836 6.37723 9.69614 7.03323 9.69614ZM7.03323 8.3628C6.75546 8.3628 6.51923 8.26547 6.32457 8.0708C6.1299 7.87614 6.03279 7.64014 6.03323 7.3628C6.03323 7.08502 6.13057 6.8488 6.32523 6.65414C6.5199 6.45947 6.7559 6.36236 7.03323 6.3628C7.31101 6.3628 7.54723 6.46014 7.7419 6.6548C7.93657 6.84947 8.03368 7.08547 8.03323 7.3628C8.03323 7.64058 7.9359 7.8768 7.74123 8.07147C7.54657 8.26614 7.31057 8.36325 7.03323 8.3628ZM6.33323 12.6961H7.6499L7.88323 10.9295C8.22768 10.8406 8.54723 10.7099 8.8419 10.5375C9.13657 10.365 9.4059 10.1568 9.6499 9.9128L11.2999 10.5961L11.9499 9.4628L10.5166 8.37947C10.5721 8.22391 10.611 8.06014 10.6332 7.88814C10.6555 7.71614 10.6666 7.54103 10.6666 7.3628C10.6666 7.18502 10.6555 7.01014 10.6332 6.83814C10.611 6.66614 10.5721 6.50214 10.5166 6.34614L11.9499 5.2628L11.2999 4.12947L9.6499 4.82947C9.40545 4.57391 9.13612 4.36014 8.8419 4.18814C8.54768 4.01614 8.22812 3.88547 7.88323 3.79614L7.66657 2.02947H6.3499L6.11657 3.79614C5.77212 3.88503 5.45279 4.01569 5.15857 4.18814C4.86434 4.36058 4.59479 4.5688 4.3499 4.8128L2.6999 4.12947L2.0499 5.2628L3.48323 6.32947C3.42768 6.49614 3.38879 6.6628 3.36657 6.82947C3.34434 6.99614 3.33323 7.17391 3.33323 7.3628C3.33323 7.54058 3.34434 7.7128 3.36657 7.87947C3.38879 8.04614 3.42768 8.2128 3.48323 8.37947L2.0499 9.4628L2.6999 10.5961L4.3499 9.89614C4.59434 10.1517 4.8639 10.3657 5.15857 10.5381C5.45323 10.7106 5.77257 10.841 6.11657 10.9295L6.33323 12.6961Z" fill="white"/>
</svg>
