<svg width="12" height="13" viewBox="0 0 12 13" fill="none" xmlns="http://www.w3.org/2000/svg">
<path d="M2 0.821869C1.46957 0.821869 0.960859 1.03258 0.585786 1.40766C0.210714 1.78273 0 2.29144 0 2.82187V4.32187C0 4.45448 0.0526785 4.58165 0.146447 4.67542C0.240215 4.76919 0.367392 4.82187 0.5 4.82187C0.632608 4.82187 0.759785 4.76919 0.853553 4.67542C0.947321 4.58165 1 4.45448 1 4.32187V2.82187C1 2.55665 1.10536 2.3023 1.29289 2.11476C1.48043 1.92723 1.73478 1.82187 2 1.82187H3.5C3.63261 1.82187 3.75979 1.76919 3.85355 1.67542C3.94732 1.58165 4 1.45448 4 1.32187C4 1.18926 3.94732 1.06208 3.85355 0.968316C3.75979 0.874547 3.63261 0.821869 3.5 0.821869H2ZM2 12.8219C1.46957 12.8219 0.960859 12.6112 0.585786 12.2361C0.210714 11.861 0 11.3523 0 10.8219V9.32187C0 9.18926 0.0526785 9.06208 0.146447 8.96832C0.240215 8.87455 0.367392 8.82187 0.5 8.82187C0.632608 8.82187 0.759785 8.87455 0.853553 8.96832C0.947321 9.06208 1 9.18926 1 9.32187V10.8219C1 11.0871 1.10536 11.3414 1.29289 11.529C1.48043 11.7165 1.73478 11.8219 2 11.8219H3.5C3.63261 11.8219 3.75979 11.8745 3.85355 11.9683C3.94732 12.0621 4 12.1893 4 12.3219C4 12.4545 3.94732 12.5817 3.85355 12.6754C3.75979 12.7692 3.63261 12.8219 3.5 12.8219H2ZM12 2.82187C12 2.29144 11.7893 1.78273 11.4142 1.40766C11.0391 1.03258 10.5304 0.821869 10 0.821869H8.5C8.36739 0.821869 8.24021 0.874547 8.14645 0.968316C8.05268 1.06208 8 1.18926 8 1.32187C8 1.45448 8.05268 1.58165 8.14645 1.67542C8.24021 1.76919 8.36739 1.82187 8.5 1.82187H10C10.2652 1.82187 10.5196 1.92723 10.7071 2.11476C10.8946 2.3023 11 2.55665 11 2.82187V4.32187C11 4.45448 11.0527 4.58165 11.1464 4.67542C11.2402 4.76919 11.3674 4.82187 11.5 4.82187C11.6326 4.82187 11.7598 4.76919 11.8536 4.67542C11.9473 4.58165 12 4.45448 12 4.32187V2.82187ZM10 12.8219C10.5304 12.8219 11.0391 12.6112 11.4142 12.2361C11.7893 11.861 12 11.3523 12 10.8219V9.32187C12 9.18926 11.9473 9.06208 11.8536 8.96832C11.7598 8.87455 11.6326 8.82187 11.5 8.82187C11.3674 8.82187 11.2402 8.87455 11.1464 8.96832C11.0527 9.06208 11 9.18926 11 9.32187V10.8219C11 11.0871 10.8946 11.3414 10.7071 11.529C10.5196 11.7165 10.2652 11.8219 10 11.8219H8.5C8.36739 11.8219 8.24021 11.8745 8.14645 11.9683C8.05268 12.0621 8 12.1893 8 12.3219C8 12.4545 8.05268 12.5817 8.14645 12.6754C8.24021 12.7692 8.36739 12.8219 8.5 12.8219H10ZM3.5 7.82187C3.5 7.15883 3.76339 6.52294 4.23223 6.0541C4.70107 5.58526 5.33696 5.32187 6 5.32187C6.66304 5.32187 7.29893 5.58526 7.76777 6.0541C8.23661 6.52294 8.5 7.15883 8.5 7.82187C8.5 8.48491 8.23661 9.1208 7.76777 9.58964C7.29893 10.0585 6.66304 10.3219 6 10.3219C5.33696 10.3219 4.70107 10.0585 4.23223 9.58964C3.76339 9.1208 3.5 8.48491 3.5 7.82187ZM6 6.32187C5.60218 6.32187 5.22064 6.4799 4.93934 6.76121C4.65804 7.04251 4.5 7.42404 4.5 7.82187C4.5 8.21969 4.65804 8.60122 4.93934 8.88253C5.22064 9.16383 5.60218 9.32187 6 9.32187C6.39782 9.32187 6.77936 9.16383 7.06066 8.88253C7.34196 8.60122 7.5 8.21969 7.5 7.82187C7.5 7.42404 7.34196 7.04251 7.06066 6.76121C6.77936 6.4799 6.39782 6.32187 6 6.32187ZM1.314 6.78587C1.43706 6.83517 1.57467 6.83358 1.69656 6.78145C1.81845 6.72932 1.91465 6.63091 1.964 6.50787L1.969 6.49787L1.997 6.43787C2.024 6.38287 2.069 6.30087 2.133 6.19787C2.31178 5.91854 2.52701 5.6643 2.773 5.44187C3.376 4.89487 4.384 4.32187 6 4.32187C7.617 4.32187 8.624 4.89487 9.226 5.44187C9.531 5.71887 9.738 5.99487 9.866 6.19887C9.92714 6.29502 9.98224 6.39488 10.031 6.49787C10.031 6.49787 10.275 6.94987 10.686 6.78587C10.809 6.73652 10.9074 6.64032 10.9596 6.51843C11.0117 6.39654 11.0133 6.25893 10.964 6.13587V6.13387L10.962 6.12987L10.957 6.11987C10.9387 6.0761 10.9187 6.03307 10.897 5.99087C10.8405 5.87885 10.7784 5.76972 10.711 5.66387C10.4844 5.30848 10.2113 4.98495 9.899 4.70187C9.125 3.99887 7.882 3.32187 5.999 3.32187C4.117 3.32187 2.874 3.99887 2.101 4.70187C1.78833 4.98486 1.5149 5.30839 1.288 5.66387C1.19559 5.81002 1.1134 5.96238 1.042 6.11987L1.038 6.12987L1.036 6.13487C0.9867 6.25793 0.98829 6.39654 1.04042 6.51843C1.09255 6.64032 1.19096 6.73652 1.314 6.78587Z" fill="white"/>
</svg>
