<svg width="15" height="13" viewBox="0 0 15 13" fill="none" xmlns="http://www.w3.org/2000/svg">
<path d="M2.76 0.592361V1.86569H0.5V3.11236C0.5 5.19903 1.12 6.36236 2.61 7.08569C3.16393 7.38352 3.6752 7.75464 4.13 8.18903C4.49555 8.57894 4.94136 8.88487 5.43667 9.0857L6 9.25903V10.769H5.14C4.1 10.769 3.75 11.0057 3.75 11.709V12.1824H10.25V11.759C10.25 11.069 9.82333 10.759 8.83667 10.759H8V9.25903L8.57333 9.08903C9.06935 8.88799 9.51535 8.5808 9.88 8.18903C10.3545 7.73681 10.8856 7.34801 11.46 7.03236C11.906 6.81772 12.3044 6.5156 12.6313 6.14397C12.9583 5.77233 13.2072 5.33877 13.3633 4.86903C13.4694 4.28742 13.5186 3.69684 13.51 3.1057V1.86903H11.24V0.592361H2.76ZM7 2.71569L7.68333 4.12903H9.33L8.04 5.31903L8.41 6.83903L7 6.08236L5.59 6.84903L5.96 5.32903L4.66667 4.13903H6.31667L7 2.71569ZM1.68667 3.13903H2.74V5.7657C2.63 5.83236 2.28667 5.43236 2.03667 4.97569C1.89473 4.62607 1.8038 4.25786 1.76667 3.88236L1.68667 3.13903ZM11.26 3.13903H12.4067L12.31 3.87236C12.2873 4.48282 12.0418 5.06384 11.62 5.50569C11.5208 5.64094 11.3948 5.75439 11.25 5.83903L11.26 3.13903Z" stroke="white" stroke-linecap="round" stroke-linejoin="round"/>
</svg>
